<?xml version="1.0" standalone="no"?>
<!DOCTYPE svg PUBLIC "-//W3C//DTD SVG 20010904//EN"
 "http://www.w3.org/TR/2001/REC-SVG-20010904/DTD/svg10.dtd">
<svg version="1.0" xmlns="http://www.w3.org/2000/svg"
 width="512.000000pt" height="512.000000pt" viewBox="0 0 512.000000 512.000000"
 preserveAspectRatio="xMidYMid meet">

<g transform="translate(0.000000,512.000000) scale(0.100000,-0.100000)"
fill="#000000" stroke="none">
<path d="M2952 4390 c-247 -65 -412 -292 -400 -550 7 -141 71 -246 190 -311
l63 -34 255 -5 255 -5 -85 -19 c-196 -42 -386 -174 -479 -330 -80 -134 -121
-325 -101 -467 15 -101 68 -208 139 -280 61 -61 114 -92 201 -119 l54 -18
-134 -5 c-79 -2 -159 -11 -194 -21 -343 -96 -579 -342 -661 -690 -28 -117 -33
-264 -14 -358 33 -162 166 -335 310 -402 156 -74 87 -70 1149 -74 997 -3 1104
0 1217 39 169 57 311 201 374 379 33 93 33 304 1 435 -89 358 -380 624 -747
681 -78 12 -76 12 135 14 167 1 230 5 281 18 169 44 300 180 346 355 19 73 13
226 -12 322 -59 224 -239 417 -465 501 -73 27 -82 28 -320 32 l-245 5 62 17
c197 54 301 235 263 457 -35 211 -217 398 -428 442 -34 7 -211 11 -495 10
-403 0 -449 -2 -515 -19z"/>
</g>
</svg>
