<svg width="94" height="37" viewBox="0 0 94 37" fill="none" xmlns="http://www.w3.org/2000/svg">
<path d="M94 12C93.0674 12.2053 92.1842 12.4318 91.3503 12.6737C89.352 13.2533 87.625 13.9849 86.1497 14.6852C85.1974 15.1378 84.8569 15.3377 83.6086 16.0486C80.727 17.6757 79 19.7867 79 22.9457C79 26.5152 81.7434 29 86.1053 29C90.4671 29 93.2105 26.3046 93.2105 22.7351C93.2105 19.1656 90.2007 16.6962 94 12Z" fill="hsl(351deg 72.56% 69.23%)"/>
<path d="M87 14.6131C85.9452 13.4544 84.9536 12.9527 84.1768 12.6136C81.5679 11.4764 78 11 78 11C80.2232 12.8754 79.9929 14.8667 79.7143 16.4933C79.7143 16.4933 79.507 17.9044 79.8166 19" fill="hsl(351deg 72.56% 69.23%)"/>
<path d="M92 12C91.197 10.2944 90.1288 8.49323 90.1288 8.49323C90.1288 8.49323 86.8376 8.49323 83.076 11.4797M85.8396 9.59309C84.1644 7.64442 81.8124 7 81.8124 7C81.0172 7.9706 80.316 9.40691 80 10.461" fill="hsl(351deg 72.56% 69.23%)"/>
<path d="M9.16 28.48C7.61333 28.48 6.24667 28.1133 5.06 27.38C3.87333 26.6467 2.94 25.6267 2.26 24.32C1.59333 23.0133 1.26 21.5067 1.26 19.8C1.26 18.0933 1.59333 16.5867 2.26 15.28C2.94 13.9733 3.87333 12.9533 5.06 12.22C6.24667 11.4733 7.61333 11.1 9.16 11.1C10.3067 11.1 11.3267 11.3 12.22 11.7C13.1133 12.0867 13.8267 12.54 14.36 13.06C14.8933 13.58 15.2067 14.04 15.3 14.44V0.479999H19.58V28H15.36V24.96C15.1733 25.4267 14.7933 25.9333 14.22 26.48C13.6467 27.0267 12.92 27.5 12.04 27.9C11.1733 28.2867 10.2133 28.48 9.16 28.48ZM10.26 25.02C11.1933 25.02 12.04 24.8 12.8 24.36C13.56 23.92 14.1667 23.3133 14.62 22.54C15.0733 21.7533 15.3 20.84 15.3 19.8C15.3 18.76 15.0733 17.8533 14.62 17.08C14.1667 16.2933 13.56 15.68 12.8 15.24C12.04 14.7867 11.1933 14.56 10.26 14.56C9.40667 14.56 8.61333 14.78 7.88 15.22C7.16 15.6467 6.58 16.2533 6.14 17.04C5.7 17.8267 5.48 18.7467 5.48 19.8C5.48 20.8533 5.7 21.7733 6.14 22.56C6.58 23.3467 7.16 23.9533 7.88 24.38C8.61333 24.8067 9.40667 25.02 10.26 25.02ZM33.5872 28V24.96C33.4805 25.28 33.1739 25.72 32.6672 26.28C32.1739 26.84 31.4939 27.3467 30.6272 27.8C29.7739 28.2533 28.7605 28.48 27.5872 28.48C26.0539 28.48 24.6739 28.1133 23.4472 27.38C22.2205 26.6467 21.2539 25.6267 20.5472 24.32C19.8405 23.0133 19.4872 21.5067 19.4872 19.8C19.4872 18.0933 19.8405 16.5867 20.5472 15.28C21.2539 13.9733 22.2205 12.9533 23.4472 12.22C24.6739 11.4733 26.0539 11.1 27.5872 11.1C28.7339 11.1 29.7272 11.3 30.5672 11.7C31.4072 12.1 32.0805 12.56 32.5872 13.08C33.1072 13.6 33.4272 14.0533 33.5472 14.44V11.58H37.7872V28H33.5872ZM23.7072 19.8C23.7072 20.8533 23.9405 21.7733 24.4072 22.56C24.8739 23.3467 25.4805 23.9533 26.2272 24.38C26.9872 24.8067 27.8005 25.02 28.6672 25.02C29.6005 25.02 30.4272 24.8 31.1472 24.36C31.8805 23.92 32.4539 23.3133 32.8672 22.54C33.2939 21.7533 33.5072 20.84 33.5072 19.8C33.5072 18.76 33.2939 17.8533 32.8672 17.08C32.4539 16.2933 31.8805 15.68 31.1472 15.24C30.4272 14.7867 29.6005 14.56 28.6672 14.56C27.8005 14.56 26.9872 14.78 26.2272 15.22C25.4805 15.6467 24.8739 16.2533 24.4072 17.04C23.9405 17.8267 23.7072 18.7467 23.7072 19.8ZM49.2078 11.1C50.3145 11.1 51.3878 11.3267 52.4278 11.78C53.4678 12.2333 54.3211 12.96 54.9878 13.96C55.6678 14.9467 56.0078 16.2333 56.0078 17.82V28H51.7078V18.6C51.7078 17.12 51.3545 16.0333 50.6478 15.34C49.9545 14.6333 49.0545 14.28 47.9478 14.28C47.2145 14.28 46.5145 14.4867 45.8478 14.9C45.1811 15.3133 44.6345 15.8733 44.2078 16.58C43.7945 17.2867 43.5878 18.1 43.5878 19.02V28H39.3078V11.58H43.5878V14.34C43.7078 13.8867 44.0278 13.4133 44.5478 12.92C45.0811 12.4133 45.7545 11.9867 46.5678 11.64C47.3811 11.28 48.2611 11.1 49.2078 11.1ZM64.7462 24.18L69.9462 11.58H74.2062L63.0462 36.32H58.7262L62.4862 28L55.6862 11.58H60.0062L64.7462 24.18Z" fill="hsl(351deg 72.56% 69.23%)"/>
</svg>
